<?xml version="1.0" encoding="utf-8"?>
<!-- Generator: Adobe Illustrator 27.0.0, SVG Export Plug-In . SVG Version: 6.00 Build 0)  -->
<svg version="1.1" id="Layer_1" xmlns="http://www.w3.org/2000/svg" xmlns:xlink="http://www.w3.org/1999/xlink" x="0px" y="0px"
	 viewBox="0 0 55 55" style="enable-background:new 0 0 55 55;" xml:space="preserve">
<style type="text/css">
	.st0{fill:#5B85CA;}
</style>
<g>
	<path class="st0" d="M24.2,5.7c-5.1,0.8-9.5,3.2-13,7c-3.7,4.1-5.6,9.1-5.6,14.7c0,2.8,0.5,5.5,1.5,8c1,2.5,2.4,4.8,4.1,6.7
		c1.7,1.9,3.8,3.6,6.2,4.8c2.1,1.1,4.3,1.8,6.6,2.2v-2.6c-4.4-0.8-8.2-2.9-11.2-6.4c-3.2-3.6-4.8-7.9-4.8-12.8s1.6-9.1,4.8-12.8
		c3-3.4,6.7-5.5,11.2-6.4V5.7z"/>
	<path class="st0" d="M24.4,49.5l-0.3,0c-2.4-0.4-4.6-1.1-6.7-2.2c-2.4-1.3-4.5-2.9-6.3-4.9c-1.8-2-3.2-4.3-4.2-6.8
		c-1-2.5-1.5-5.3-1.5-8.1c0-5.7,1.9-10.7,5.7-14.9c3.5-3.9,7.9-6.3,13.1-7.1l0.3,0v3.1l-0.2,0c-4.4,0.8-8.1,2.9-11.1,6.3
		c-3.1,3.6-4.7,7.8-4.7,12.6s1.6,9,4.7,12.6c2.9,3.4,6.6,5.5,11,6.3l0.2,0V49.5z M24,6c-4.9,0.8-9.1,3.1-12.5,6.9
		c-3.7,4.1-5.6,9-5.6,14.5c0,2.8,0.5,5.4,1.5,7.9c1,2.5,2.4,4.7,4.1,6.6c1.7,1.9,3.8,3.5,6.2,4.8c1.9,1,4.1,1.7,6.3,2.1v-2.1
		c-4.4-0.8-8.1-3-11.1-6.4C9.6,36.7,8,32.4,8,27.4c0-4.9,1.6-9.3,4.8-12.9c3-3.4,6.7-5.5,11.2-6.4V6z"/>
</g>
<g>
	<path class="st0" d="M30.7,46.6v2.6c1.8-0.3,3.5-0.7,5.1-1.4c1.6-0.7,3.2-1.5,4.6-2.6l-1.9-1.9c-1.2,0.8-2.4,1.5-3.7,2.1
		C33.5,45.9,32.2,46.3,30.7,46.6z"/>
	<path class="st0" d="M30.5,49.5v-3.1l0.2,0c1.4-0.3,2.8-0.7,4.1-1.2c1.3-0.6,2.5-1.2,3.7-2l0.2-0.1l2.3,2.3l-0.2,0.2
		c-1.5,1.1-3.1,1.9-4.7,2.6c-1.6,0.7-3.4,1.2-5.1,1.4L30.5,49.5z M31,46.8v2.1c1.6-0.3,3.2-0.7,4.7-1.4s3-1.4,4.4-2.4l-1.5-1.5
		c-1.1,0.8-2.3,1.4-3.6,2C33.7,46.1,32.4,46.5,31,46.8z"/>
</g>
<g>
	<path class="st0" d="M43.3,38.6l1.8,1.9c1.1-1.4,1.9-2.9,2.6-4.6c0.7-1.6,1.2-3.4,1.5-5.1h-2.7c-0.3,1.4-0.7,2.8-1.2,4.1
		C44.8,36.2,44.1,37.4,43.3,38.6z"/>
	<path class="st0" d="M45.2,40.8L43,38.6l0.1-0.2c0.8-1.2,1.5-2.4,2-3.7c0.5-1.3,0.9-2.7,1.2-4.1l0-0.2h3.2l-0.1,0.3
		c-0.3,1.8-0.8,3.5-1.5,5.2c-0.7,1.6-1.5,3.2-2.6,4.6L45.2,40.8z M43.6,38.5l1.5,1.5c1-1.3,1.8-2.8,2.4-4.3c0.6-1.5,1.1-3.1,1.4-4.8
		h-2.2c-0.3,1.4-0.7,2.7-1.2,3.9C45,36.2,44.4,37.4,43.6,38.5z"/>
</g>
<g>
	<polygon class="st0" points="17.3,27.4 27.4,37.5 37.5,27.5 35.6,25.6 28.7,32.5 28.7,17 26.2,17 26.2,32.5 19.2,25.5 	"/>
	<path class="st0" d="M27.4,37.9l-0.2-0.2L17,27.4l2.2-2.2l6.7,6.7V16.8H29v15.1l6.6-6.6l2.2,2.3L27.4,37.9z M17.7,27.4l9.8,9.8
		l9.7-9.7L35.6,26l-7.1,7.1V17.3h-2.1v15.8l-7.2-7.2L17.7,27.4z"/>
</g>
<g>
	<path class="st0" d="M46.5,24.2h2.7c-0.3-1.8-0.8-3.5-1.4-5.1c-0.7-1.6-1.6-3.2-2.6-4.6l-1.8,1.9c0.8,1.2,1.5,2.4,2,3.7
		C45.9,21.4,46.3,22.7,46.5,24.2z"/>
	<path class="st0" d="M49.5,24.4h-3.2l0-0.2c-0.3-1.4-0.6-2.8-1.2-4.1c-0.5-1.3-1.2-2.5-2-3.7L43,16.3l2.2-2.2l0.2,0.2
		c1.1,1.4,2,3,2.7,4.6c0.7,1.7,1.2,3.4,1.5,5.2L49.5,24.4z M46.7,23.9h2.2c-0.3-1.6-0.7-3.2-1.4-4.8c-0.6-1.5-1.5-3-2.4-4.3
		l-1.5,1.5c0.8,1.1,1.4,2.4,1.9,3.6C46.1,21.2,46.5,22.5,46.7,23.9z"/>
</g>
<g>
	<path class="st0" d="M30.8,8.3c1.4,0.3,2.8,0.7,4.1,1.2c1.3,0.6,2.6,1.3,3.8,2.1l1.8-1.9c-1.4-1-3-1.9-4.6-2.6
		c-1.6-0.7-3.3-1.2-5.1-1.4V8.3z"/>
	<path class="st0" d="M38.7,12l-0.2-0.1c-1.2-0.8-2.4-1.5-3.7-2c-1.3-0.6-2.7-1-4.1-1.2l-0.2,0V5.4l0.3,0c1.8,0.3,3.5,0.8,5.1,1.4
		c1.6,0.7,3.2,1.6,4.7,2.6l0.2,0.2L38.7,12z M31,8.1c1.4,0.3,2.7,0.7,4,1.2c1.3,0.5,2.5,1.2,3.6,2l1.5-1.5c-1.4-1-2.8-1.8-4.3-2.4
		C34.3,6.7,32.7,6.3,31,6V8.1z"/>
</g>
</svg>
