<?xml version="1.0" encoding="utf-8"?>
<!-- Generator: Adobe Illustrator 27.0.0, SVG Export Plug-In . SVG Version: 6.00 Build 0)  -->
<svg version="1.1" id="Ebene_1" xmlns="http://www.w3.org/2000/svg" xmlns:xlink="http://www.w3.org/1999/xlink" x="0px" y="0px"
	 viewBox="0 0 142.8 71" style="enable-background:new 0 0 142.8 71;" xml:space="preserve">
<style type="text/css">
	.st0{fill:#F7F7F7;}
</style>
<path class="st0" d="M105.7,71c-20.4,0-37.1-15.9-37.1-35.5S85.2,0,105.7,0s37.1,15.9,37.1,35.5S126.2,71,105.7,71z M105.7,3.8
	C87.4,3.8,72.5,18,72.5,35.4S87.4,67,105.7,67s33.2-14.2,33.2-31.6S124,3.8,105.7,3.8z"/>
<path class="st0" d="M61,69.5H7.8c-3.6,0-6.2-1.5-7.3-4.2c-1.1-2.6-0.5-5.6,1.6-8.7c0.7-1,7.2-10.8,7.2-21.1S2.9,15.4,2.2,14.3
	c-2.1-3-2.7-6.1-1.6-8.7s3.8-4.2,7.3-4.2h53.2c3.5,0,6.2,1.5,7.3,4.2c1.1,2.6,0.5,5.6-1.6,8.7c-0.1,0.1-7.1,10.4-7.1,21.2
	s7.1,21.1,7.1,21.2c2.1,3.1,2.7,6.1,1.6,8.7C67.2,68,64.5,69.5,61,69.5z M7.8,5.3c-1.4,0-3.1,0.3-3.7,1.8c-0.5,1.3-0.1,3.1,1.2,5
	c0.8,1.2,7.8,11.9,7.8,23.4s-7,22.2-7.8,23.4c-1.4,1.9-1.8,3.7-1.3,5c0.6,1.5,2.4,1.8,3.7,1.8h53.2c1.4,0,3.1-0.3,3.7-1.8
	c0.5-1.3,0.1-3.1-1.2-5c0,0-7.8-11.2-7.8-23.4s7.8-23.4,7.9-23.5c1.3-1.8,1.7-3.7,1.2-4.9c-0.6-1.5-2.4-1.8-3.7-1.8
	C61,5.3,7.8,5.3,7.8,5.3z"/>
</svg>
