<?xml version="1.0" encoding="UTF-8"?><svg id="Ebene_1" xmlns="http://www.w3.org/2000/svg" viewBox="0 0 142.84 71"><defs><style>.cls-1{fill:#3969ad;}</style></defs><path class="cls-1" d="M105.74,71c-20.4,0-37.1-15.9-37.1-35.5S85.24,0,105.74,0s37.1,15.9,37.1,35.5-16.6,35.5-37.1,35.5Zm0-67.2c-18.3,0-33.2,14.2-33.2,31.6s14.9,31.6,33.2,31.6,33.2-14.2,33.2-31.6c0-17.4-14.9-31.6-33.2-31.6Z"/><path class="cls-1" d="M61.04,69.5H7.84c-3.6,0-6.2-1.5-7.3-4.2-1.1-2.6-.5-5.6,1.6-8.7,.7-1,7.2-10.8,7.2-21.1S2.94,15.4,2.24,14.3C.14,11.3-.46,8.2,.64,5.6,1.74,3,4.44,1.4,7.94,1.4H61.14c3.5,0,6.2,1.5,7.3,4.2,1.1,2.6,.5,5.6-1.6,8.7-.1,.1-7.1,10.4-7.1,21.2s7.1,21.1,7.1,21.2c2.1,3.1,2.7,6.1,1.6,8.7-1.2,2.6-3.9,4.1-7.4,4.1ZM7.84,5.3c-1.4,0-3.1,.3-3.7,1.8-.5,1.3-.1,3.1,1.2,5,.8,1.2,7.8,11.9,7.8,23.4s-7,22.2-7.8,23.4c-1.4,1.9-1.8,3.7-1.3,5,.6,1.5,2.4,1.8,3.7,1.8H60.94c1.4,0,3.1-.3,3.7-1.8,.5-1.3,.1-3.1-1.2-5,0,0-7.8-11.2-7.8-23.4s7.8-23.4,7.9-23.5c1.3-1.8,1.7-3.7,1.2-4.9-.6-1.5-2.4-1.8-3.7-1.8H7.84Z"/></svg>