<svg id="Ebene_1" xmlns="http://www.w3.org/2000/svg" xmlns:xlink="http://www.w3.org/1999/xlink" viewBox="0 0 77.54 53.52"><defs><style>.cls-1{fill:none;}.cls-2{clip-path:url(#clippath);}.cls-3{fill:#e85627;}.cls-4{fill:#1a171b;}</style><clipPath id="clippath"><rect class="cls-1" width="77.54" height="53.52"></rect></clipPath></defs><g class="cls-2"><path class="cls-4" d="M9.26,6.57c2.15,0,2.07-.54,2.07-1.96,0-1.12-.42-1.44-2.07-1.44h-3.87v3.4h3.87ZM.39,.25H10.03c4.32,.05,6.44,.67,6.44,3.81,0,2.1,0,3.32-3.55,3.87v.13c2.05,.05,3.37,.81,3.37,2.23v2.53h-5v-1.76c.05-.94-.55-1.58-2.05-1.58h-3.87v3.34H.39V.25Z"></path><path class="cls-4" d="M30.51,7.94v-2.83c0-1.86-.92-2.05-3.52-2.05s-3.45,.18-3.52,2.05v2.83c.07,1.88,.92,2.06,3.52,2.06s3.52-.18,3.52-2.06m-12.19,.37v-3.55C18.32,.89,21.92,.15,26.99,.15s8.67,.74,8.67,4.61v3.55c0,3.87-3.6,4.61-8.67,4.61s-8.67-.74-8.67-4.61"></path><path class="cls-4" d="M46.54,5.18c5.55,.27,6.92,.74,6.92,3.62,0,2.08,.13,4.12-8.12,4.12-4.77,0-7.94-.07-7.94-4.19h4.8c0,1.31,.7,1.44,3.15,1.44s3.12-.1,3.12-1.16-.27-1.07-2.62-1.17l-1.1-.05c-4.62-.22-7.32-.2-7.32-3.81S40.45,.15,45.34,.15c4.1,0,7.59,.05,7.59,3.52v.52h-4.8c0-1.29-.8-1.29-2.8-1.29-2.7,0-2.92,.37-2.92,1.07,0,1.01,.72,1.04,2.05,1.11l2.07,.1Z"></path><path class="cls-4" d="M64.43,5.18c5.55,.27,6.92,.74,6.92,3.62,0,2.08,.13,4.12-8.12,4.12-4.77,0-7.94-.07-7.94-4.19h4.8c0,1.31,.7,1.44,3.15,1.44s3.12-.1,3.12-1.16-.27-1.07-2.62-1.17l-1.1-.05c-4.62-.22-7.32-.2-7.32-3.81S58.33,.15,63.23,.15c4.1,0,7.59,.05,7.59,3.52v.52h-4.8c0-1.29-.8-1.29-2.8-1.29-2.7,0-2.92,.37-2.92,1.07,0,1.01,.72,1.04,2.05,1.11l2.07,.1Z"></path><path class="cls-3" d="M71.44,53.28h-31.23s-1.55,.1-2.22-.47c-.74-.64-.75-2.39-.75-2.39V31.1s-.07-1.59,.53-2.26c.66-.73,2.44-.71,2.44-.71h13.38s1.93,.13,2.09-.56c.17-.74-1.35-1.68-1.35-1.68l-17.08-8.17s-1.76-1.23-1.47-2.24c.21-.72,1.47-1.26,1.47-1.26h34.19V53.28Z"></path><path class="cls-4" d="M.14,14.23H31.61s1.79-.06,2.45,.68c.61,.68,.51,2.29,.51,2.29v19.31s.08,1.78-.65,2.45c-.68,.63-2.32,.51-2.32,.51h-12.78s-2.5-.13-2.66,.66c-.22,1.09,2.05,1.92,2.05,1.92l16.36,7.82s1.84,1.24,1.5,2.24c-.24,.7-1.5,1.15-1.5,1.15H.14V14.23Z"></path><path class="cls-4" d="M75.5,12.39c.18,0,.45,.05,.41,.43-.03,.29-.22,.34-.41,.34h-.72v-.77h.72Zm-1.01,1.99h.29v-.96h.74c.47,0,.34,.41,.38,.68l.05,.28h.34c-.12-.19-.08-.24-.11-.54-.04-.39-.04-.42-.27-.57,.22-.17,.31-.27,.29-.56-.03-.51-.37-.57-.71-.57h-1v2.24Zm2.56-1.06c0,1-.81,1.8-1.8,1.8-1,0-1.8-.8-1.8-1.79,0-1,.8-1.8,1.79-1.8s1.8,.81,1.8,1.8m.24,0c0-1.12-.91-2.03-2.03-2.03s-2.04,.91-2.03,2.03c0,1.13,.91,2.03,2.03,2.03,1.12,0,2.03-.91,2.03-2.03"></path></g></svg>