<svg id="Ebene_1" xmlns="http://www.w3.org/2000/svg" viewBox="0 0 77.54 77.54"><defs><style>.cls-1{fill:#fff;}.cls-2{fill:#bf0c1d;}</style></defs><rect class="cls-2" width="77.54" height="77.54"></rect><g><path class="cls-1" d="M31.31,12.8h14.93c1.57,0,2.85,1.28,2.85,2.85v14.93c0,1.57-1.28,2.85-2.85,2.85h-14.92c-1.57,0-2.85-1.28-2.85-2.85V15.65c0-1.57,1.28-2.85,2.85-2.85Z"></path><path class="cls-1" d="M62.18,35.84h-1.09c-1.42,0-2.56,1.7-2.56,3.79v3c0,.88-.87,1.59-1.95,1.59h-4.46c-1.07,0-2.37-.77-2.88-1.71,0,0-.2-.38-.97-1.27-2.3-2.68-5.7-4.38-9.51-4.38-4.05,0-7.65,1.93-9.94,4.92l-.58,.75c-.49,.93-1.77,1.7-2.84,1.71h-1.02c-1.06,0-2.72,.02-3.67,.02-.95,0-1.72-.71-1.72-1.6v-3.03c0-2.1-1.14-3.79-2.56-3.79h-1.09c-1.41,0-2.56,1.7-2.56,3.79v19.53c0,2.1,1.15,3.8,2.56,3.8h1.09c1.41,0,2.56-1.7,2.56-3.8v-2.91c0-.95,.88-1.73,1.95-1.72h0c1.07,0,2.82,.01,3.89,.02h.57c1.07,0,2.36,.78,2.87,1.72,0,0,.2,.38,.97,1.27,2.3,2.68,5.7,4.38,9.51,4.38,3.38,0,6.44-1.34,8.69-3.52,.26-.25,.49-.5,.7-.74,.11-.12,.21-.25,.32-.38,.04-.05,.07-.09,.11-.13,.33-.41,.62-.83,.89-1.28,.63-.75,1.73-1.32,2.66-1.32h4.46c1.07,0,1.95,.72,1.95,1.61v2.98c0,2.1,1.14,3.8,2.56,3.8h1.09c1.41,0,2.56-1.7,2.56-3.8v-19.53c0-2.1-1.14-3.79-2.56-3.79Z"></path></g></svg>