<?xml version="1.0" encoding="utf-8"?>
<!-- Generator: Adobe Illustrator 27.0.0, SVG Export Plug-In . SVG Version: 6.00 Build 0)  -->
<svg version="1.1" id="Ebene_1" xmlns="http://www.w3.org/2000/svg" xmlns:xlink="http://www.w3.org/1999/xlink" x="0px" y="0px"
	 viewBox="0 0 408.7 71" style="enable-background:new 0 0 408.7 71;" xml:space="preserve">
<style type="text/css">
	.st0{fill:#F7F7F7;}
</style>
<path class="st0" d="M105.8,71c-20.4,0-37-15.9-37-35.5S85.3,0,105.8,0s37.1,15.9,37.1,35.5S126.2,71,105.8,71z M105.8,3.9
	c-18.3,0-33.2,14.2-33.2,31.6s14.9,31.6,33.2,31.6s33.2-14.2,33.2-31.6S124.1,3.9,105.8,3.9z"/>
<path class="st0" d="M61,69.6H7.8c-3.5,0-6.2-1.5-7.3-4.2c-1.1-2.5-0.5-5.6,1.6-8.7c0.7-1.1,7.1-10.9,7.1-21.2S2.9,15.4,2.2,14.3
	c-2.1-3-2.7-6.1-1.6-8.7C1.6,3,4.3,1.4,7.8,1.4H61c3.5,0,6.2,1.5,7.3,4.2c1.1,2.6,0.5,5.6-1.6,8.7c-0.1,0.1-7.1,10.4-7.1,21.2
	s7.1,21.1,7.1,21.2c2.1,3.1,2.7,6.1,1.6,8.7C67.2,68.1,64.6,69.6,61,69.6z M7.8,5.3c-1.4,0-3.1,0.3-3.7,1.8c-0.5,1.3-0.1,3.1,1.2,5
	c0.8,1.2,7.8,11.9,7.8,23.4s-7,22.2-7.8,23.4c-1.3,1.9-1.8,3.7-1.3,5c0.6,1.5,2.4,1.8,3.7,1.8H61c1.4,0,3.1-0.3,3.7-1.8
	c0.5-1.3,0.1-3.1-1.2-5c0,0-7.8-11.2-7.8-23.4s7.8-23.4,7.9-23.5c1.3-1.9,1.7-3.7,1.2-4.9c-0.6-1.5-2.4-1.8-3.8-1.8
	C61,5.3,7.8,5.3,7.8,5.3z"/>
<path class="st0" d="M186.9,38v19.8c0,0.8-0.7,1.4-1.4,1.4c-0.8,0-1.4-0.6-1.4-1.4V38c0-3-0.7-5.4-1.9-6.8c-1.5-1.6-4-2.5-7.6-2.5
	s-6.6,0.6-9.1,1.9c0,0-0.4,0.1-0.8,0.4v26.7c0,0.8-0.6,1.4-1.4,1.4c-0.8,0-1.4-0.6-1.4-1.4V11.9c0-0.7,0.7-1.4,1.4-1.4
	c0.8,0,1.4,0.7,1.4,1.4V28c2.8-1.3,6-2,9.8-2c4.5,0,7.7,1.1,9.7,3.4C186,31.3,186.9,34.2,186.9,38"/>
<path class="st0" d="M198.5,38v9.3c0,8,4.5,9.2,9.4,9.2s9.4-1.1,9.4-9.2V38c0-8-4.5-9.1-9.4-9.1S198.5,29.9,198.5,38 M195.8,47.2V38
	c0-12,9.1-12,12.1-12s12.1,0,12.1,12v9.3c0,11.9-9.1,12-12.1,12S195.8,59.2,195.8,47.2"/>
<path class="st0" d="M250.3,38.6c0,0.8-0.7,1.4-1.4,1.4h-18.5c-0.8,0-1.5-0.6-1.5-1.4s0.7-1.5,1.5-1.5h18.5
	C249.7,37.1,250.3,37.8,250.3,38.6"/>
<path class="st0" d="M302.3,36.4v21.4c0,0.8-0.7,1.4-1.4,1.4c-0.8,0-1.4-0.6-1.4-1.4V36.4c0-2.6-0.6-4.5-1.7-5.6
	c-1.4-1.6-3.7-2.2-6.4-2.1c-2.1,0.2-6.2,2.8-8.5,4.5c0.1,1,0.3,2.1,0.3,3.3v21.4c0,0.8-0.7,1.4-1.5,1.4c-0.7,0-1.4-0.6-1.4-1.4V36.4
	c0-2.6-0.5-4.5-1.6-5.6c-1.4-1.6-3.7-2.2-6.5-2.1c-1.9,0.1-5.7,2.5-8.1,4.3v24.9c0,0.7-0.6,1.4-1.4,1.4c-0.8,0-1.4-0.7-1.4-1.4V27.3
	c0-0.7,0.7-1.3,1.4-1.3c0.8,0,1.4,0.6,1.4,1.3v2.2c2.2-1.4,5.6-3.3,7.9-3.5c3.6-0.3,6.8,0.7,8.8,2.8c0.5,0.5,0.8,1,1.2,1.6
	c2-1.4,6.4-4.2,9.3-4.4c3.6-0.3,6.7,0.7,8.7,2.8C301.5,30.5,302.3,33,302.3,36.4"/>
<path class="st0" d="M332.9,52.5v-10c-1.3-0.2-3.7-0.7-6.5-0.8c-0.7-0.1-1.3-0.1-2-0.1c-4,0-6.9,0.8-8.6,2.3
	c-1.2,1.1-1.7,2.5-1.7,4.5c0,3.6,1.3,5.9,4.3,7.2c1.4,0.6,3.1,0.9,5,0.9c3.3,0,6.5-1,8.4-2.5C332.2,53.5,332.7,53,332.9,52.5
	 M335.7,52.8v5c0,0.8-0.6,1.4-1.4,1.4c-0.7,0-1.4-0.7-1.4-1.4v-1.3c-2.4,1.6-6,2.7-9.5,2.7c-2.2,0-4.3-0.4-6.1-1.1
	c-4-1.8-6-5.1-6-9.8c0-2.8,0.9-4.9,2.6-6.5c2.6-2.4,6.8-3.4,12.8-3.1c2.5,0.2,4.8,0.5,6.2,0.8v-2.7c0-2.8-0.6-4.7-1.8-6
	c-1.4-1.5-3.9-2.2-7.3-2.2c-3.1,0-5.6,0.4-7.6,1.1c-0.8,0.3-1.6-0.1-1.9-0.7c-0.2-0.8,0.1-1.6,0.8-1.9c2.4-0.9,5.3-1.3,8.6-1.3
	c4.2,0,7.4,1,9.3,3c1.8,1.8,2.6,4.4,2.6,7.9L335.7,52.8L335.7,52.8z"/>
<path class="st0" d="M363,57.8c0,0.7-0.6,1.4-1.4,1.4h-0.1c-1,0-7.1-0.2-11.5-4.5c-2.9-2.8-4.3-6.7-4.3-11.6V12.9
	c0-0.8,0.6-1.4,1.4-1.4c0.7,0,1.4,0.7,1.4,1.4v13h9.9c0.8,0,1.4,0.7,1.4,1.4s-0.6,1.4-1.4,1.4h-9.9v14.4c0,4.1,1.2,7.4,3.5,9.6
	c3.8,3.7,9.5,3.6,9.5,3.6h0.1C362.3,56.3,363,56.9,363,57.8"/>
<path class="st0" d="M375,27.4v30.4c0,0.8-0.6,1.4-1.4,1.4c-0.8,0-1.3-0.6-1.3-1.4V27.4c0-0.8,0.6-1.4,1.3-1.4
	C374.4,26,375,26.6,375,27.4 M375.7,16.4c0,1.1-1,2.1-2.1,2.1s-2-1-2-2.1s0.9-2,2-2S375.7,15.2,375.7,16.4"/>
<path class="st0" d="M384.6,42.6c0-15,10.3-16.6,14.7-16.6c5.3,0,8.4,1.3,8.6,1.4c0.7,0.3,1,1.1,0.7,1.9c-0.3,0.8-1.1,1-1.8,0.8
	c-0.1-0.1-2.8-1.2-7.5-1.2s-11.9,1.8-11.9,13.8s7.5,13.8,11.9,13.8s7.4-1.2,7.5-1.2c0.7-0.3,1.5,0,1.8,0.8c0.4,0.7,0,1.5-0.7,1.9
	c-0.1,0-3.3,1.4-8.6,1.4C394.9,59.3,384.6,57.6,384.6,42.6"/>
</svg>
