<?xml version="1.0" encoding="UTF-8"?><svg id="Ebene_1" xmlns="http://www.w3.org/2000/svg" viewBox="0 0 408.7 71.01"><defs><style>.cls-1{fill:#0069b4;}.cls-2{fill:#5b534f;}</style></defs><path class="cls-1" d="M105.76,71.01c-20.43,0-37.05-15.93-37.05-35.51S85.33,0,105.76,0s37.06,15.93,37.06,35.5-16.62,35.51-37.06,35.51Zm0-67.13c-18.29,0-33.17,14.18-33.17,31.62s14.88,31.63,33.17,31.63,33.17-14.19,33.17-31.63S124.06,3.88,105.76,3.88Z"/><path class="cls-1" d="M61.01,69.58H7.85c-3.55,0-6.22-1.53-7.32-4.19-1.08-2.55-.5-5.64,1.64-8.68,.72-1.07,7.13-10.86,7.13-21.2S2.89,15.38,2.16,14.3C.03,11.26-.55,8.18,.53,5.61,1.63,2.96,4.3,1.44,7.85,1.44H61.01c3.55,0,6.22,1.53,7.33,4.18,1.07,2.56,.49,5.64-1.63,8.68-.08,.11-7.14,10.36-7.14,21.21s7.05,21.08,7.12,21.18c2.13,3.06,2.71,6.14,1.64,8.7-1.11,2.66-3.78,4.19-7.32,4.19ZM7.85,5.32c-1.37,0-3.12,.31-3.74,1.79-.55,1.3-.11,3.06,1.23,4.97,.83,1.23,7.83,11.92,7.83,23.43s-7,22.2-7.8,23.38c-1.35,1.93-1.8,3.73-1.27,5,.62,1.5,2.37,1.81,3.74,1.81H61.01c1.36,0,3.12-.31,3.74-1.8,.53-1.27,.08-3.08-1.23-4.96-.01,0-7.84-11.18-7.84-23.43s7.78-23.36,7.86-23.46c1.29-1.85,1.74-3.66,1.21-4.93-.62-1.48-2.38-1.8-3.75-1.8H7.85Z"/><path class="cls-2" d="M186.86,38.02v19.8c0,.82-.67,1.42-1.41,1.42-.82,0-1.42-.6-1.42-1.42v-19.8c0-3.05-.66-5.36-1.94-6.77-1.49-1.64-4.02-2.46-7.59-2.46s-6.55,.6-9.08,1.94c0,0-.37,.15-.75,.37v26.72c0,.82-.59,1.42-1.41,1.42-.75,0-1.42-.6-1.42-1.42V11.91c0-.74,.67-1.42,1.42-1.42,.82,0,1.41,.67,1.41,1.42V27.98c2.83-1.34,6.03-2.01,9.83-2.01,4.46,0,7.66,1.11,9.68,3.35,1.78,1.94,2.68,4.92,2.68,8.71"/><path class="cls-2" d="M198.54,37.95v9.3c0,8.04,4.54,9.15,9.37,9.15s9.38-1.11,9.38-9.15v-9.3c0-8.04-4.54-9.15-9.38-9.15s-9.37,1.11-9.37,9.15m-2.76,9.3v-9.3c0-11.99,9.08-11.99,12.13-11.99s12.14,0,12.14,11.99v9.3c0,11.91-9.08,11.98-12.14,11.98s-12.13,0-12.13-11.98"/><path class="cls-2" d="M250.34,38.62c0,.81-.67,1.42-1.41,1.42h-18.46c-.82,0-1.49-.61-1.49-1.42s.67-1.49,1.49-1.49h18.46c.74,0,1.41,.67,1.41,1.49"/><path class="cls-2" d="M302.29,36.39v21.43c0,.82-.67,1.42-1.41,1.42-.82,0-1.42-.6-1.42-1.42v-21.43c0-2.6-.59-4.47-1.71-5.65-1.41-1.57-3.71-2.24-6.4-2.09-2.08,.23-6.18,2.75-8.49,4.47,.15,1.04,.3,2.09,.3,3.27v21.43c0,.82-.67,1.42-1.49,1.42-.74,0-1.41-.6-1.41-1.42v-21.43c0-2.6-.52-4.47-1.64-5.65-1.42-1.57-3.72-2.24-6.55-2.09-1.86,.15-5.73,2.54-8.11,4.25v24.93c0,.74-.6,1.42-1.41,1.42-.75,0-1.41-.67-1.41-1.42V27.31c0-.74,.67-1.34,1.41-1.34,.81,0,1.41,.6,1.41,1.34v2.16c2.23-1.41,5.58-3.34,7.89-3.49,3.64-.3,6.77,.74,8.78,2.83,.45,.45,.83,.97,1.19,1.56,2.01-1.42,6.41-4.17,9.31-4.39,3.58-.3,6.7,.74,8.71,2.83,1.64,1.71,2.46,4.24,2.46,7.59"/><path class="cls-2" d="M332.87,52.46v-10.04c-1.26-.23-3.72-.68-6.47-.82-.67-.08-1.34-.08-2.01-.08-4.02,0-6.92,.82-8.63,2.3-1.19,1.12-1.71,2.54-1.71,4.47,0,3.64,1.34,5.94,4.32,7.22,1.41,.59,3.12,.89,4.98,.89,3.28,0,6.55-.96,8.41-2.52,.45-.37,.89-.89,1.11-1.42m2.84,.38v4.98c0,.75-.6,1.42-1.42,1.42-.74,0-1.42-.67-1.42-1.42v-1.27c-2.38,1.64-5.95,2.68-9.53,2.68-2.22,0-4.31-.38-6.1-1.12-4.02-1.78-6.02-5.06-6.02-9.81,0-2.76,.89-4.92,2.6-6.47,2.61-2.39,6.84-3.43,12.8-3.06,2.52,.15,4.76,.52,6.25,.81v-2.67c0-2.76-.59-4.69-1.78-5.96-1.42-1.49-3.87-2.16-7.29-2.16-3.06,0-5.59,.37-7.6,1.12-.75,.3-1.57-.08-1.86-.74-.23-.75,.15-1.56,.82-1.86,2.38-.89,5.29-1.34,8.64-1.34,4.24,0,7.36,1.04,9.3,3.05,1.78,1.78,2.61,4.39,2.61,7.89v15.93Z"/><path class="cls-2" d="M363.01,57.75c0,.73-.6,1.41-1.42,1.41h-.08c-.96,0-7.07-.15-11.45-4.46-2.91-2.84-4.32-6.7-4.32-11.61V12.87c0-.75,.6-1.42,1.41-1.42,.74,0,1.35,.67,1.35,1.42v13.03h9.9c.81,0,1.41,.66,1.41,1.41s-.6,1.41-1.41,1.41h-9.9v14.37c0,4.09,1.19,7.36,3.49,9.6,3.8,3.71,9.53,3.64,9.53,3.64h.08c.73,0,1.42,.6,1.42,1.42"/><path class="cls-2" d="M374.98,27.38v30.44c0,.82-.59,1.42-1.41,1.42-.75,0-1.34-.6-1.34-1.42V27.38c0-.75,.59-1.42,1.34-1.42,.82,0,1.41,.67,1.41,1.42m.67-11.01c0,1.12-.97,2.08-2.08,2.08s-2.01-.97-2.01-2.08,.89-2.01,2.01-2.01,2.08,.89,2.08,2.01"/><path class="cls-2" d="M384.59,42.64c0-14.96,10.27-16.59,14.73-16.59,5.28,0,8.41,1.34,8.57,1.41,.67,.3,1.03,1.11,.67,1.86-.29,.75-1.11,1.04-1.79,.75-.07-.08-2.82-1.19-7.45-1.19s-11.91,1.79-11.91,13.77,7.45,13.77,11.91,13.77,7.37-1.19,7.45-1.19c.67-.29,1.49,0,1.79,.75,.36,.67,0,1.49-.67,1.86-.15,0-3.28,1.42-8.57,1.42-4.46,0-14.73-1.65-14.73-16.6"/></svg>